<svg xmlns="http://www.w3.org/2000/svg">

    <symbol id="avatar" viewBox="0 0 482.9 482.9" width="100" height="100">
        <path d="M239.7 260.2h3.2c29.3-.5 53-10.8 70.5-30.5 38.5-43.4 32.1-117.8 31.4-124.9-2.5-53.3-27.7-78.8-48.5-90.7C280.8 5.2 262.7.4 242.5 0h-1.7c-11.1 0-32.9 1.8-53.8 13.7-21 11.9-46.6 37.4-49.1 91.1-.7 7.1-7.1 81.5 31.4 124.9 17.4 19.7 41.1 30 70.4 30.5zm-75.1-152.9c0-.3.1-.6.1-.8 3.3-71.7 54.2-79.4 76-79.4h1.2c27 .6 72.9 11.6 76 79.4 0 .3 0 .6.1.8.1.7 7.1 68.7-24.7 104.5-12.6 14.2-29.4 21.2-51.5 21.4h-1c-22-.2-38.9-7.2-51.4-21.4-31.7-35.6-24.9-103.9-24.8-104.5z"/>
        <path d="M446.8 383.6v-.3c0-.8-.1-1.6-.1-2.5-.6-19.8-1.9-66.1-45.3-80.9-.3-.1-.7-.2-1-.3-45.1-11.5-82.6-37.5-83-37.8-6.1-4.3-14.5-2.8-18.8 3.3-4.3 6.1-2.8 14.5 3.3 18.8 1.7 1.2 41.5 28.9 91.3 41.7 23.3 8.3 25.9 33.2 26.6 56 0 .9 0 1.7.1 2.5.1 9-.5 22.9-2.1 30.9-16.2 9.2-79.7 41-176.3 41-96.2 0-160.1-31.9-176.4-41.1-1.6-8-2.3-21.9-2.1-30.9 0-.8.1-1.6.1-2.5.7-22.8 3.3-47.7 26.6-56 49.8-12.8 89.6-40.6 91.3-41.7 6.1-4.3 7.6-12.7 3.3-18.8-4.3-6.1-12.7-7.6-18.8-3.3-.4.3-37.7 26.3-83 37.8-.4.1-.7.2-1 .3-43.4 14.9-44.7 61.2-45.3 80.9 0 .9 0 1.7-.1 2.5v.3c-.1 5.2-.2 31.9 5.1 45.3 1 2.6 2.8 4.8 5.2 6.3 3 2 74.9 47.8 195.2 47.8s192.2-45.9 195.2-47.8c2.3-1.5 4.2-3.7 5.2-6.3 5-13.3 4.9-40 4.8-45.2z"/>
    </symbol>

   <symbol id="cup" viewBox="0 0 511.988 511.988" width="100" height="100">
        <path d="M394.655 202.654H95.988c-17.643 0-32 14.357-32 32v21.333c0 76.117 42.048 145.152 109.717 180.16 5.227 2.688 11.669.661 14.379-4.587 2.688-5.227.661-11.669-4.587-14.379-60.544-31.317-98.176-93.077-98.176-161.195v-21.333c0-5.888 4.779-10.667 10.667-10.667h298.667c5.888 0 10.667 4.779 10.667 10.667v21.333c0 68.117-37.632 129.877-98.197 161.173-5.248 2.709-7.275 9.152-4.587 14.379a10.69 10.69 0 0 0 9.493 5.781c1.664 0 3.328-.384 4.885-1.195 67.691-34.987 109.739-104 109.739-180.139v-21.333c0-17.641-14.358-31.998-32-31.998z"/>
        <path d="M489.865 422.558c-1.664-3.989-5.547-6.592-9.856-6.592H10.676c-4.309 0-8.192 2.603-9.856 6.592a10.643 10.643 0 0 0 2.304 11.627l23.915 23.936c14.123 14.101 32.853 21.867 52.8 21.867h330.965c19.947 0 38.699-7.765 52.843-21.867l23.915-23.936a10.644 10.644 0 0 0 2.303-11.627zm-41.322 20.48c-10.069 10.069-23.488 15.616-37.717 15.616H79.839c-14.229 0-27.648-5.547-37.717-15.616l-5.717-5.717H454.26l-5.717 5.717zm42.816-190.016c-28.736-18.475-74.645 1.579-79.787 3.904-5.355 2.453-7.744 8.768-5.291 14.144a10.657 10.657 0 0 0 14.144 5.291c10.283-4.672 43.264-15.744 59.392-5.355 7.275 4.672 10.837 13.739 10.837 27.648 0 42.709-86.144 68.523-119.403 74.88l-7.552 1.493c-5.781 1.131-9.536 6.741-8.405 12.523 1.003 5.077 5.461 8.597 10.453 8.597.683 0 1.365-.064 2.069-.213l7.488-1.472c5.589-1.067 136.683-26.773 136.683-95.808.001-21.461-6.953-36.8-20.628-45.632zM328.372 113.31c17.344-21.675 17.344-55.616 0-77.291a10.634 10.634 0 0 0-14.997-1.664 10.655 10.655 0 0 0-1.664 14.997c10.987 13.717 10.987 36.907-.021 50.667-17.365 21.675-17.365 55.616 0 77.291a10.626 10.626 0 0 0 8.341 4.011c2.325 0 4.693-.768 6.656-2.347 4.608-3.691 5.355-10.411 1.664-14.997-11.008-13.718-11.008-36.907.021-50.667zm-64.085 0c17.365-21.675 17.365-55.616 0-77.291-3.669-4.608-10.389-5.355-14.997-1.664-4.608 3.691-5.355 10.411-1.664 14.997 11.008 13.717 11.008 36.907-.021 50.667-17.344 21.675-17.344 55.616 0 77.291a10.626 10.626 0 0 0 8.341 4.011c2.325 0 4.672-.768 6.656-2.347a10.655 10.655 0 0 0 1.664-14.997c-10.987-13.718-10.987-36.907.021-50.667zm-63.915.021c17.344-21.675 17.344-55.616 0-77.291a10.632 10.632 0 0 0-14.997-1.664c-4.587 3.669-5.333 10.389-1.664 14.976 10.987 13.717 10.987 36.907-.021 50.667-17.365 21.675-17.365 55.616 0 77.291a10.626 10.626 0 0 0 8.341 4.011 10.72 10.72 0 0 0 6.656-2.325c4.608-3.691 5.355-10.411 1.664-14.997-11.008-13.74-11.008-36.908.021-50.668z"/>
   </symbol>

   <symbol id="comments" width="511.62" height="511.619" viewBox="0 0 511.62 511.619">
        <path d="M301.923 327.602c30.93-13.038 55.34-30.785 73.228-53.248 17.891-22.458 26.837-46.915 26.837-73.372 0-26.458-8.946-50.914-26.837-73.376-17.888-22.459-42.298-40.208-73.228-53.249-30.93-13.039-64.571-19.556-100.928-19.556-36.354 0-69.995 6.521-100.927 19.56C69.14 87.4 44.729 105.149 26.84 127.609 8.947 150.068 0 174.523 0 200.982c0 22.648 6.764 43.975 20.276 63.957 13.512 19.985 32.071 36.833 55.671 50.535-1.902 4.572-3.853 8.754-5.852 12.566a72.375 72.375 0 0 1-7.139 10.991 984.53 984.53 0 0 0-6.423 8.275c-1.523 1.998-3.997 4.809-7.424 8.422-3.428 3.617-5.618 5.996-6.567 7.135 0-.191-.383.24-1.143 1.287-.763 1.047-1.191 1.52-1.287 1.431-.094-.103-.476.373-1.141 1.42l-1 1.571-.715 1.423a5.979 5.979 0 0 0-.57 1.712c-.096.567-.144 1.19-.144 1.854s.094 1.28.286 1.854c.383 2.471 1.477 4.466 3.284 5.996 1.809 1.52 3.757 2.279 5.854 2.279h.857c9.515-1.332 17.701-2.854 24.552-4.569 29.312-7.614 55.771-19.797 79.372-36.545 17.128 3.046 33.88 4.568 50.248 4.568 36.354.012 69.999-6.503 100.928-19.542zm-159.739-23.835l-12.564 8.846c-5.33 3.614-11.227 7.331-17.7 11.14l9.995-23.986-27.694-15.988c-18.276-10.656-32.454-23.219-42.542-37.685-10.089-14.465-15.131-29.502-15.131-45.111 0-19.417 7.474-37.594 22.414-54.534 14.938-16.94 35.067-30.358 60.382-40.259 25.313-9.895 52.532-14.847 81.653-14.847 29.121 0 56.342 4.952 81.654 14.847 25.313 9.9 45.442 23.319 60.388 40.259 14.94 16.939 22.408 35.116 22.408 54.534 0 19.414-7.468 37.59-22.408 54.53-14.945 16.945-35.074 30.36-60.388 40.256-25.312 9.897-52.53 14.846-81.654 14.846-14.272 0-28.833-1.335-43.681-3.997l-15.132-2.851z"/>
        <path d="M491.347 338.156c13.518-19.896 20.272-41.255 20.272-64.098 0-23.411-7.139-45.303-21.409-65.666-14.277-20.362-33.694-37.305-58.245-50.819 4.374 14.274 6.563 28.739 6.563 43.398 0 25.503-6.368 49.676-19.129 72.519-12.752 22.836-31.025 43.01-54.816 60.524-22.08 15.988-47.205 28.261-75.377 36.829-28.164 8.562-57.573 12.848-88.218 12.848-5.708 0-14.084-.377-25.122-1.137 38.256 25.119 83.177 37.685 134.756 37.685 16.371 0 33.119-1.526 50.251-4.571 23.6 16.755 50.06 28.931 79.37 36.549 6.852 1.718 15.037 3.237 24.554 4.568 2.283.195 4.381-.476 6.283-1.995 1.903-1.526 3.142-3.614 3.71-6.276-.089-1.143 0-1.77.287-1.861.281-.09.233-.712-.144-1.852-.376-1.144-.568-1.715-.568-1.715l-.712-1.424a13.68 13.68 0 0 0-.999-1.567c-.476-.66-.855-1.14-1.143-1.427-.28-.284-.705-.763-1.28-1.424-.568-.66-.951-1.092-1.143-1.283-.951-1.143-3.139-3.521-6.564-7.139-3.429-3.613-5.899-6.42-7.422-8.418a867.888 867.888 0 0 0-6.424-8.282 72.209 72.209 0 0 1-7.139-10.991c-1.998-3.806-3.949-7.995-5.852-12.56 23.594-13.716 42.156-30.512 55.66-50.415z"/>
   </symbol>

   <symbol id="edit" viewBox="0 0 55.25 55.25" width="512" height="512">
        <path d="M52.618 2.631c-3.51-3.508-9.219-3.508-12.729 0L3.827 38.693c-.017.017-.027.038-.042.056-.021.024-.039.05-.058.076a.972.972 0 0 0-.125.239c-.009.026-.022.049-.029.075l-.012.03-3.535 14.85a.991.991 0 0 0-.022.202c0 .013-.004.025-.004.038a.995.995 0 0 0 .095.403c.049.107.11.21.196.296a1.006 1.006 0 0 0 .938.266l14.85-3.535c.027-.006.051-.021.077-.03a.985.985 0 0 0 .3-.162c.024-.019.049-.033.072-.054.008-.008.018-.012.026-.02L52.617 15.36c3.51-3.51 3.51-9.22.001-12.729zm-1.414 1.414c2.488 2.489 2.7 6.397.65 9.137l-9.787-9.787c2.741-2.05 6.649-1.838 9.137.65zm-4.95 14.85l-9.9-9.9 1.414-1.414 9.9 9.9-1.414 1.414zM4.961 50.288a.999.999 0 0 0-1.414 0l-.757.757 2.554-10.728 4.422-.491-.569 5.122c-.004.038.01.073.01.11 0 .038-.014.072-.01.11.004.033.021.06.028.092a1.016 1.016 0 0 0 .245.473c.048.051.1.094.157.134.045.031.088.06.138.084.066.031.135.049.207.066.038.009.069.03.108.035a.982.982 0 0 0 .109.006h.004a.995.995 0 0 0 .109-.006l5.122-.569-.491 4.422-10.729 2.554.757-.757a1 1 0 0 0 0-1.414zm12.55-5.479L39.889 22.43a.999.999 0 1 0-1.414-1.414L16.097 43.395l-4.773.53.53-4.773 22.38-22.378a.999.999 0 1 0-1.414-1.414L10.44 37.738l-3.183.354L34.94 10.409l9.9 9.9-27.683 27.683.354-3.183zm31.571-28.742l-9.9-9.9 1.415-1.415 9.9 9.9-1.415 1.415z"/>
   </symbol>

   <symbol id="like" viewBox="0 0 51.997 51.997" width="100" height="100">
        <path d="M51.911 16.242c-.759-8.354-6.672-14.415-14.072-14.415-4.93 0-9.444 2.653-11.984 6.905-2.517-4.307-6.846-6.906-11.697-6.906C6.759 1.826.845 7.887.087 16.241c-.06.369-.306 2.311.442 5.478 1.078 4.568 3.568 8.723 7.199 12.013l18.115 16.439 18.426-16.438c3.631-3.291 6.121-7.445 7.199-12.014.748-3.166.502-5.108.443-5.477zm-2.39 5.019c-.984 4.172-3.265 7.973-6.59 10.985L25.855 47.481 9.072 32.25c-3.331-3.018-5.611-6.818-6.596-10.99-.708-2.997-.417-4.69-.416-4.701l.015-.101c.65-7.319 5.731-12.632 12.083-12.632 4.687 0 8.813 2.88 10.771 7.515l.921 2.183.921-2.183c1.927-4.564 6.271-7.514 11.069-7.514 6.351 0 11.433 5.313 12.096 12.727.002.016.293 1.71-.415 4.707z"/>
   </symbol>

   <symbol id="link" viewBox="0 0 482.8 482.8" width="100" height="100">
        <path d="M255.2 209.3c-5.3 5.3-5.3 13.8 0 19.1 21.9 21.9 21.9 57.5 0 79.4l-115 115c-21.9 21.9-57.5 21.9-79.4 0l-17.3-17.3c-21.9-21.9-21.9-57.5 0-79.4l115-115c5.3-5.3 5.3-13.8 0-19.1s-13.8-5.3-19.1 0l-115 115C8.7 322.7 0 343.6 0 365.8c0 22.2 8.6 43.1 24.4 58.8l17.3 17.3c16.2 16.2 37.5 24.3 58.8 24.3s42.6-8.1 58.8-24.3l115-115c32.4-32.4 32.4-85.2 0-117.6-5.2-5.3-13.8-5.3-19.1 0z"/>
        <path d="M458.5 58.2l-17.3-17.3c-32.4-32.4-85.2-32.4-117.6 0l-115 115c-32.4 32.4-32.4 85.2 0 117.6 5.3 5.3 13.8 5.3 19.1 0s5.3-13.8 0-19.1c-21.9-21.9-21.9-57.5 0-79.4l115-115c21.9-21.9 57.5-21.9 79.4 0l17.3 17.3c21.9 21.9 21.9 57.5 0 79.4l-115 115c-5.3 5.3-5.3 13.8 0 19.1 2.6 2.6 6.1 4 9.5 4s6.9-1.3 9.5-4l115-115c15.7-15.7 24.4-36.6 24.4-58.8 0-22.2-8.6-43.1-24.3-58.8z"/>
   </symbol>

   <symbol id="list" viewBox="0 0 60.123 60.123" width="100" height="100">
        <path d="M57.124 51.893H16.92a3 3 0 1 1 0-6h40.203a3 3 0 0 1 .001 6zm0-18.831H16.92a3 3 0 1 1 0-6h40.203a3 3 0 0 1 .001 6zm0-18.831H16.92a3 3 0 1 1 0-6h40.203a3 3 0 0 1 .001 6z"/>
        <circle cx="4.029" cy="11.463" r="4.029"/>
        <circle cx="4.029" cy="30.062" r="4.029"/>
        <circle cx="4.029" cy="48.661" r="4.029"/>
   </symbol>

   <symbol id="mech" width="418.879" height="418.879" viewBox="0 0 418.879 418.879">
        <path d="M188.634 234.066a106.422 106.422 0 0 0 22.767-19.127l23.942 13.826 21.8-37.76-23.894-13.796a105.139 105.139 0 0 0 5.16-29.311l27.183-4.793-7.574-42.938-27.178 4.793a105.7 105.7 0 0 0-14.906-25.744l17.766-21.17-33.4-28.024-17.751 21.152a104.949 104.949 0 0 0-27.954-10.203V13.385h-43.6v27.586a104.962 104.962 0 0 0-27.956 10.203l-17.75-21.152-33.4 28.025 17.764 21.17a105.747 105.747 0 0 0-14.905 25.744L7.57 100.168 0 143.106l27.179 4.793a105.166 105.166 0 0 0 5.161 29.313L8.444 191.007l21.801 37.759 23.943-13.822a106.42 106.42 0 0 0 22.766 19.125l-9.451 25.963 40.972 14.91 9.438-25.928c4.864.688 9.831 1.053 14.882 1.053s10.019-.363 14.883-1.053l9.437 25.93 40.97-14.914-9.451-25.964zm-55.841-34.001c-30.702 0-55.68-24.977-55.68-55.68 0-30.701 24.978-55.68 55.68-55.68s55.68 24.979 55.68 55.68c0 30.703-24.977 55.68-55.68 55.68zm243.248 66.742l-18.795 6.08a75.683 75.683 0 0 0-13.115-16.779l10.504-16.764-26.447-16.57-10.498 16.75a74.99 74.99 0 0 0-20.826-4.471l-2.725-19.559-30.912 4.309 2.725 19.559a75.108 75.108 0 0 0-18.812 9.996l-14.672-13.244-20.912 23.168 14.684 13.259a75.667 75.667 0 0 0-8.02 19.726l-19.744-.714-1.129 31.188 19.743.716a75.277 75.277 0 0 0 6.558 20.271l-15.578 12.143 19.185 24.615 15.609-12.164a76.371 76.371 0 0 0 18.031 11.311l-4.138 19.344 30.522 6.52 4.133-19.314c3.516.01 7.072-.229 10.652-.727a76.217 76.217 0 0 0 10.447-2.215l9.256 17.451 27.574-14.623-9.266-17.471a76.307 76.307 0 0 0 14.252-15.812l18.338 7.436 11.727-28.924-18.303-7.422a75.589 75.589 0 0 0 .764-21.293l18.799-6.084-9.611-29.692zm-78.912 83.199c-21.771 3.031-41.949-12.209-44.98-33.977-3.037-21.769 12.207-41.949 33.977-44.979 21.768-3.036 41.941 12.207 44.98 33.978 3.029 21.767-12.21 41.941-33.977 44.978zm121.017-191.359l.732-24.629-15.586-.463a59.753 59.753 0 0 0-5.285-15.971l12.24-9.67-15.271-19.33-12.238 9.666a59.705 59.705 0 0 0-14.318-8.816l3.164-15.291-24.123-4.996-3.17 15.281a59.165 59.165 0 0 0-16.641 2.412l-7.391-13.727-21.695 11.684 7.391 13.729a59.377 59.377 0 0 0-11.176 12.566l-14.496-5.77-9.111 22.893 14.508 5.779a59.69 59.69 0 0 0-.514 16.799l-14.809 4.898 7.732 23.395 14.809-4.896a59.42 59.42 0 0 0 10.426 13.201l-8.191 13.268 20.963 12.946 8.209-13.292a60.239 60.239 0 0 0 16.453 3.414l2.252 15.453 24.383-3.561-2.246-15.434a59.551 59.551 0 0 0 7.684-3.463 59.632 59.632 0 0 0 7.123-4.51l11.648 10.371 16.387-18.398-11.656-10.383a60.324 60.324 0 0 0 6.203-15.619l15.61.464zm-58.71 13.197c-15.281 8.227-34.404 2.492-42.627-12.783-8.23-15.277-2.494-34.404 12.787-42.627 15.273-8.229 34.395-2.49 42.625 12.787 8.222 15.278 2.49 34.395-12.785 42.623z"/>    
   </symbol>

   <symbol id="open_folder" iewBox="0 0 43.974 43.974" width="512" height="512">
      <path d="M2.226 35.285c.136 1.262 1.192 2.302 2.457 2.419l32.679 3.017.23.011c.667 0 1.276-.263 1.716-.741a2.325 2.325 0 0 0 .599-1.793l-.128-1.54 4.169-28.727a2.372 2.372 0 0 0-.542-1.897 2.372 2.372 0 0 0-1.799-.808H19.952c-.151-.004-.492-.151-.599-.258l-.502-.53c-.665-.705-1.808-1.196-2.777-1.196H8.025c-1.225 0-2.389.892-2.709 2.074l-1.859 6.887h-1.06a2.41 2.41 0 0 0-1.791.788 2.409 2.409 0 0 0-.592 1.867l2.212 20.427zM8.174 6.242h7.9c.151.004.492.151.599.258l.502.53c.666.705 1.808 1.196 2.777 1.196h20.921L38.672 23.39l-.918-11.023a2.602 2.602 0 0 0-2.578-2.372H14.984c-1.03 0-2.182.576-2.799 1.399l-.453.603a.895.895 0 0 1-.406.207H6.564l1.61-5.962zm3.153 8.962c1.03 0 2.182-.576 2.799-1.399l.453-.602a.895.895 0 0 1 .406-.207h19.811l2.056 24.666-31.667-2.923-2.117-19.535h8.259z" />
   </symbol>

   <symbol id="placeholder" viewBox="0 0 54.757 54.757" width="512" height="512">
        <path d="M27.557 12c-3.859 0-7 3.141-7 7s3.141 7 7 7 7-3.141 7-7-3.141-7-7-7zm0 12c-2.757 0-5-2.243-5-5s2.243-5 5-5 5 2.243 5 5-2.243 5-5 5z"/>
        <path d="M40.94 5.617A19.052 19.052 0 0 0 27.38 0a19.05 19.05 0 0 0-13.56 5.617c-6.703 6.702-7.536 19.312-1.804 26.952L27.38 54.757 42.721 32.6c5.755-7.671 4.922-20.281-1.781-26.983zm.159 25.814L27.38 51.243 13.639 31.4C8.44 24.468 9.185 13.08 15.235 7.031 18.479 3.787 22.792 2 27.38 2s8.901 1.787 12.146 5.031c6.05 6.049 6.795 17.437 1.573 24.4z"/>
   </symbol>

   <symbol id="play_butt" viewBox="0 0 60 60" width="512" height="512">
        <path d="M45.563 29.174l-22-15A1 1 0 1 0 22 15v30a.999.999 0 0 0 1.563.826l22-15a1 1 0 0 0 0-1.652zM24 43.107V16.893L43.225 30 24 43.107z"/>
        <path d="M30 0C13.458 0 0 13.458 0 30s13.458 30 30 30 30-13.458 30-30S46.542 0 30 0zm0 58C14.561 58 2 45.439 2 30S14.561 2 30 2s28 12.561 28 28-12.561 28-28 28z"/>
   </symbol>

   <symbol id="search" viewBox="0 0 52.966 52.966" >
     <path d="M51.704 51.273L36.845 35.82c3.79-3.801 6.138-9.041 6.138-14.82 0-11.58-9.42-21-21-21s-21 9.42-21 21 9.42 21 21 21c5.083 0 9.748-1.817 13.384-4.832l14.895 15.491a.998.998 0 0 0 1.414.028 1 1 0 0 0 .028-1.414zM21.983 40c-10.477 0-19-8.523-19-19s8.523-19 19-19 19 8.523 19 19-8.524 19-19 19z" />
   </symbol>

   <symbol id="settings" viewBox="0 0 54 54" width="512" height="512">
        <path d="M51.22 21h-5.052c-.812 0-1.481-.447-1.792-1.197s-.153-1.54.42-2.114l3.572-3.571a2.763 2.763 0 0 0 .814-1.966c0-.743-.289-1.441-.814-1.967l-4.553-4.553c-1.05-1.05-2.881-1.052-3.933 0l-3.571 3.571c-.574.573-1.366.733-2.114.421A1.885 1.885 0 0 1 33 7.832V2.78A2.783 2.783 0 0 0 30.22 0h-6.44A2.783 2.783 0 0 0 21 2.78v5.052c0 .812-.447 1.481-1.197 1.792-.748.313-1.54.152-2.114-.421l-3.571-3.571c-1.052-1.052-2.883-1.05-3.933 0l-4.553 4.553a2.764 2.764 0 0 0-.814 1.967c0 .742.289 1.44.814 1.966l3.572 3.571c.573.574.73 1.364.42 2.114S8.644 21 7.832 21H2.78A2.783 2.783 0 0 0 0 23.78v6.439A2.783 2.783 0 0 0 2.78 33h5.052c.812 0 1.481.447 1.792 1.197s.153 1.54-.42 2.114l-3.572 3.571a2.763 2.763 0 0 0-.814 1.966c0 .743.289 1.441.814 1.967l4.553 4.553c1.051 1.051 2.881 1.053 3.933 0l3.571-3.572a1.887 1.887 0 0 1 2.114-.42c.75.311 1.197.98 1.197 1.792v5.052A2.783 2.783 0 0 0 23.78 54h6.439a2.783 2.783 0 0 0 2.78-2.78v-5.052c0-.812.447-1.481 1.197-1.792a1.885 1.885 0 0 1 2.114.42l3.571 3.572c1.052 1.052 2.883 1.05 3.933 0l4.553-4.553a2.764 2.764 0 0 0 .814-1.967c0-.742-.289-1.44-.814-1.966l-3.572-3.571c-.573-.574-.73-1.364-.42-2.114S45.356 33 46.168 33h5.052A2.783 2.783 0 0 0 54 30.22v-6.44A2.783 2.783 0 0 0 51.22 21zm.78 9.22c0 .43-.35.78-.78.78h-5.052a3.879 3.879 0 0 0-3.64 2.432 3.877 3.877 0 0 0 .854 4.294l3.572 3.571a.78.78 0 0 1 0 1.104l-4.553 4.553a.78.78 0 0 1-1.104 0l-3.571-3.572c-1.149-1.149-2.794-1.474-4.294-.854A3.879 3.879 0 0 0 31 46.168v5.052c0 .43-.35.78-.78.78h-6.44c-.43 0-.78-.35-.78-.78v-5.052a3.879 3.879 0 0 0-2.432-3.64 3.985 3.985 0 0 0-1.533-.311c-1.014 0-1.997.4-2.761 1.164l-3.571 3.572a.78.78 0 0 1-1.104 0L7.046 42.4a.78.78 0 0 1 0-1.104l3.572-3.571a3.879 3.879 0 0 0 .854-4.294A3.88 3.88 0 0 0 7.832 31H2.78c-.43 0-.78-.35-.78-.78v-6.44c0-.43.35-.78.78-.78h5.052a3.879 3.879 0 0 0 3.64-2.432 3.877 3.877 0 0 0-.854-4.294l-3.572-3.571a.78.78 0 0 1 0-1.104l4.553-4.553a.78.78 0 0 1 1.104 0l3.571 3.571a3.88 3.88 0 0 0 4.294.854A3.876 3.876 0 0 0 23 7.832V2.78c0-.43.35-.78.78-.78h6.439c.431 0 .781.35.781.78v5.052c0 1.624.932 3.019 2.432 3.64a3.878 3.878 0 0 0 4.294-.854l3.571-3.571a.78.78 0 0 1 1.104 0l4.553 4.553a.78.78 0 0 1 0 1.104l-3.572 3.571a3.879 3.879 0 0 0-.854 4.294 3.879 3.879 0 0 0 3.64 2.432h5.052a.78.78 0 0 1 .78.779v6.44z"/>
        <path d="M27 18c-4.963 0-9 4.037-9 9s4.037 9 9 9 9-4.037 9-9-4.037-9-9-9zm0 16c-3.859 0-7-3.141-7-7s3.141-7 7-7 7 3.141 7 7-3.141 7-7 7z"/>   
   </symbol>





</svg>